<mxfile host="app.diagrams.net" modified="2022-09-24T00:25:27.610Z" agent="5.0 (Windows NT 10.0; Win64; x64) AppleWebKit/537.36 (KHTML, like Gecko) Chrome/104.0.5112.102 Safari/537.36 OPR/90.0.4480.100" etag="2gWwrqni7l3sMeMbehM_" version="20.3.6" type="github">
  <diagram id="20quZ-jLp4Q3hZfjhy_5" name="Página-1">
    <mxGraphModel dx="1178" dy="705" grid="1" gridSize="10" guides="1" tooltips="1" connect="1" arrows="1" fold="1" page="1" pageScale="1" pageWidth="850" pageHeight="1400" math="0" shadow="0">
      <root>
        <mxCell id="0" />
        <mxCell id="1" parent="0" />
        <mxCell id="P4n7LK1rFWXvwLQipFev-1" value="&lt;span style=&quot;color: rgb(32, 33, 36); font-family: Roboto, arial, sans-serif; font-size: 13px; text-align: left; background-color: rgb(255, 255, 255);&quot;&gt;6 - Crie um programa que solicita um número e informa se ele é positivo ou negativo.&lt;/span&gt;" style="text;html=1;align=center;verticalAlign=middle;resizable=0;points=[];autosize=1;strokeColor=none;fillColor=none;" vertex="1" parent="1">
          <mxGeometry x="50" y="50" width="510" height="30" as="geometry" />
        </mxCell>
        <mxCell id="P4n7LK1rFWXvwLQipFev-10" value="" style="edgeStyle=orthogonalEdgeStyle;rounded=0;orthogonalLoop=1;jettySize=auto;html=1;" edge="1" parent="1" source="P4n7LK1rFWXvwLQipFev-2" target="P4n7LK1rFWXvwLQipFev-6">
          <mxGeometry relative="1" as="geometry" />
        </mxCell>
        <mxCell id="P4n7LK1rFWXvwLQipFev-2" value="INICIO" style="ellipse;whiteSpace=wrap;html=1;" vertex="1" parent="1">
          <mxGeometry x="265" y="110" width="120" height="80" as="geometry" />
        </mxCell>
        <mxCell id="P4n7LK1rFWXvwLQipFev-12" value="" style="edgeStyle=orthogonalEdgeStyle;rounded=0;orthogonalLoop=1;jettySize=auto;html=1;" edge="1" parent="1" source="P4n7LK1rFWXvwLQipFev-3" target="P4n7LK1rFWXvwLQipFev-5">
          <mxGeometry relative="1" as="geometry" />
        </mxCell>
        <mxCell id="P4n7LK1rFWXvwLQipFev-3" value="NUMERO" style="shape=manualInput;whiteSpace=wrap;html=1;" vertex="1" parent="1">
          <mxGeometry x="230" y="330" width="190" height="80" as="geometry" />
        </mxCell>
        <mxCell id="P4n7LK1rFWXvwLQipFev-13" style="edgeStyle=orthogonalEdgeStyle;rounded=0;orthogonalLoop=1;jettySize=auto;html=1;entryX=0.5;entryY=0;entryDx=0;entryDy=0;" edge="1" parent="1" source="P4n7LK1rFWXvwLQipFev-5" target="P4n7LK1rFWXvwLQipFev-20">
          <mxGeometry relative="1" as="geometry">
            <mxPoint x="686.21" y="600.4000000000001" as="targetPoint" />
            <Array as="points">
              <mxPoint x="560" y="500" />
            </Array>
          </mxGeometry>
        </mxCell>
        <mxCell id="P4n7LK1rFWXvwLQipFev-18" value="SIM" style="edgeLabel;html=1;align=center;verticalAlign=middle;resizable=0;points=[];" vertex="1" connectable="0" parent="P4n7LK1rFWXvwLQipFev-13">
          <mxGeometry x="-0.6365" relative="1" as="geometry">
            <mxPoint as="offset" />
          </mxGeometry>
        </mxCell>
        <mxCell id="P4n7LK1rFWXvwLQipFev-14" style="edgeStyle=orthogonalEdgeStyle;rounded=0;orthogonalLoop=1;jettySize=auto;html=1;entryX=0;entryY=0;entryDx=117.5;entryDy=0;entryPerimeter=0;" edge="1" parent="1" source="P4n7LK1rFWXvwLQipFev-5" target="P4n7LK1rFWXvwLQipFev-8">
          <mxGeometry relative="1" as="geometry">
            <Array as="points">
              <mxPoint x="183" y="500" />
            </Array>
          </mxGeometry>
        </mxCell>
        <mxCell id="P4n7LK1rFWXvwLQipFev-17" value="NÃO" style="edgeLabel;html=1;align=center;verticalAlign=middle;resizable=0;points=[];" vertex="1" connectable="0" parent="P4n7LK1rFWXvwLQipFev-14">
          <mxGeometry x="-0.5351" relative="1" as="geometry">
            <mxPoint as="offset" />
          </mxGeometry>
        </mxCell>
        <mxCell id="P4n7LK1rFWXvwLQipFev-5" value="NUMERO !=0" style="rhombus;whiteSpace=wrap;html=1;" vertex="1" parent="1">
          <mxGeometry x="260" y="440" width="130" height="120" as="geometry" />
        </mxCell>
        <mxCell id="P4n7LK1rFWXvwLQipFev-11" value="" style="edgeStyle=orthogonalEdgeStyle;rounded=0;orthogonalLoop=1;jettySize=auto;html=1;" edge="1" parent="1" source="P4n7LK1rFWXvwLQipFev-6" target="P4n7LK1rFWXvwLQipFev-3">
          <mxGeometry relative="1" as="geometry" />
        </mxCell>
        <mxCell id="P4n7LK1rFWXvwLQipFev-6" value="&quot;Informe um número&quot;" style="shape=display;whiteSpace=wrap;html=1;" vertex="1" parent="1">
          <mxGeometry x="222.5" y="230" width="205" height="60" as="geometry" />
        </mxCell>
        <mxCell id="P4n7LK1rFWXvwLQipFev-15" style="edgeStyle=orthogonalEdgeStyle;rounded=0;orthogonalLoop=1;jettySize=auto;html=1;" edge="1" parent="1" source="P4n7LK1rFWXvwLQipFev-8" target="P4n7LK1rFWXvwLQipFev-9">
          <mxGeometry relative="1" as="geometry" />
        </mxCell>
        <mxCell id="P4n7LK1rFWXvwLQipFev-8" value="&quot;O número informado é o zero&quot;" style="shape=display;whiteSpace=wrap;html=1;" vertex="1" parent="1">
          <mxGeometry x="65" y="600" width="220" height="80" as="geometry" />
        </mxCell>
        <mxCell id="P4n7LK1rFWXvwLQipFev-9" value="FIM" style="ellipse;whiteSpace=wrap;html=1;" vertex="1" parent="1">
          <mxGeometry x="115" y="890" width="120" height="80" as="geometry" />
        </mxCell>
        <mxCell id="P4n7LK1rFWXvwLQipFev-22" style="edgeStyle=orthogonalEdgeStyle;rounded=0;orthogonalLoop=1;jettySize=auto;html=1;exitX=0.5;exitY=1;exitDx=0;exitDy=0;entryX=0.494;entryY=0.006;entryDx=0;entryDy=0;entryPerimeter=0;" edge="1" parent="1" source="P4n7LK1rFWXvwLQipFev-20" target="P4n7LK1rFWXvwLQipFev-21">
          <mxGeometry relative="1" as="geometry" />
        </mxCell>
        <mxCell id="P4n7LK1rFWXvwLQipFev-27" value="NÃO" style="edgeLabel;html=1;align=center;verticalAlign=middle;resizable=0;points=[];" vertex="1" connectable="0" parent="P4n7LK1rFWXvwLQipFev-22">
          <mxGeometry x="-0.2543" y="1" relative="1" as="geometry">
            <mxPoint as="offset" />
          </mxGeometry>
        </mxCell>
        <mxCell id="P4n7LK1rFWXvwLQipFev-26" style="edgeStyle=orthogonalEdgeStyle;rounded=0;orthogonalLoop=1;jettySize=auto;html=1;entryX=0;entryY=0;entryDx=117.5;entryDy=0;entryPerimeter=0;" edge="1" parent="1" source="P4n7LK1rFWXvwLQipFev-20" target="P4n7LK1rFWXvwLQipFev-23">
          <mxGeometry relative="1" as="geometry" />
        </mxCell>
        <mxCell id="P4n7LK1rFWXvwLQipFev-28" value="SIM" style="edgeLabel;html=1;align=center;verticalAlign=middle;resizable=0;points=[];" vertex="1" connectable="0" parent="P4n7LK1rFWXvwLQipFev-26">
          <mxGeometry x="-0.3696" relative="1" as="geometry">
            <mxPoint as="offset" />
          </mxGeometry>
        </mxCell>
        <mxCell id="P4n7LK1rFWXvwLQipFev-20" value="NUMERO &amp;gt;0" style="rhombus;whiteSpace=wrap;html=1;" vertex="1" parent="1">
          <mxGeometry x="495" y="570" width="130" height="120" as="geometry" />
        </mxCell>
        <mxCell id="P4n7LK1rFWXvwLQipFev-30" style="edgeStyle=orthogonalEdgeStyle;rounded=0;orthogonalLoop=1;jettySize=auto;html=1;entryX=1;entryY=0.5;entryDx=0;entryDy=0;" edge="1" parent="1" source="P4n7LK1rFWXvwLQipFev-21" target="P4n7LK1rFWXvwLQipFev-9">
          <mxGeometry relative="1" as="geometry">
            <Array as="points">
              <mxPoint x="435" y="930" />
            </Array>
          </mxGeometry>
        </mxCell>
        <mxCell id="P4n7LK1rFWXvwLQipFev-21" value="&quot;O número informado é negativo&quot;" style="shape=display;whiteSpace=wrap;html=1;" vertex="1" parent="1">
          <mxGeometry x="325" y="800" width="220" height="80" as="geometry" />
        </mxCell>
        <mxCell id="P4n7LK1rFWXvwLQipFev-31" style="edgeStyle=orthogonalEdgeStyle;rounded=0;orthogonalLoop=1;jettySize=auto;html=1;entryX=1;entryY=0.5;entryDx=0;entryDy=0;" edge="1" parent="1" source="P4n7LK1rFWXvwLQipFev-23" target="P4n7LK1rFWXvwLQipFev-9">
          <mxGeometry relative="1" as="geometry">
            <mxPoint x="255" y="990" as="targetPoint" />
            <Array as="points">
              <mxPoint x="685" y="930" />
            </Array>
          </mxGeometry>
        </mxCell>
        <mxCell id="P4n7LK1rFWXvwLQipFev-23" value="&quot;O número informado é positivo&quot;" style="shape=display;whiteSpace=wrap;html=1;" vertex="1" parent="1">
          <mxGeometry x="565" y="800" width="220" height="80" as="geometry" />
        </mxCell>
      </root>
    </mxGraphModel>
  </diagram>
</mxfile>
